<?xml version="1.0" standalone="no"?>
<!DOCTYPE svg PUBLIC "-//W3C//DTD SVG 20010904//EN"
 "http://www.w3.org/TR/2001/REC-SVG-20010904/DTD/svg10.dtd">
<svg version="1.0" xmlns="http://www.w3.org/2000/svg"
 width="1200.000000pt" height="1200.000000pt" viewBox="0 0 1200.000000 1200.000000"
 preserveAspectRatio="xMidYMid meet">
<metadata>
Created by potrace 1.15, written by Peter Selinger 2001-2017
</metadata>
<g transform="translate(0.000000,1200.000000) scale(0.100000,-0.100000)"
fill="#000000" stroke="none">
<path d="M6300 9372 c-217 -96 -358 -169 -775 -401 -280 -155 -514 -287 -520
-292 -5 -5 83 32 195 82 286 126 300 132 304 128 1 -2 121 -190 266 -416 145
-227 267 -413 271 -413 4 0 166 89 360 198 195 109 434 242 532 296 97 54 177
101 177 103 0 10 -532 833 -538 833 -4 0 -126 -53 -272 -118z"/>
<path d="M8880 7991 c-19 -10 -57 -28 -85 -40 -27 -12 -68 -31 -90 -42 -22
-10 -43 -19 -47 -19 -11 0 -224 -105 -283 -139 -27 -16 -68 -38 -90 -50 -22
-11 -53 -29 -70 -39 -30 -19 -94 -55 -512 -287 -117 -64 -213 -119 -213 -121
0 -4 27 8 265 113 137 61 343 169 655 342 250 140 473 264 495 277 47 28 26
32 -25 5z"/>
<path d="M6716 6512 l-679 -378 -625 348 c-344 191 -627 348 -629 348 -1 0 -3
-80 -3 -178 l0 -178 83 -46 c45 -25 328 -182 628 -350 l546 -304 164 91 c90
50 394 219 674 375 281 155 516 289 524 296 10 9 13 45 13 146 0 193 -1 208
-9 208 -5 0 -313 -170 -687 -378z"/>
<path d="M2699 3788 c-1 -2 -2 -33 -3 -70 l-2 -68 98 0 98 0 0 70 0 70 -95 0
c-52 0 -96 -1 -96 -2z"/>
<path d="M3312 3728 l3 -63 95 -5 95 -5 0 -355 0 -355 -130 -5 -130 -5 -3 -62
-3 -63 346 0 345 0 0 65 0 65 -115 0 -115 0 0 425 0 425 -195 0 -196 0 3 -62z"/>
<path d="M4502 3611 l3 -180 -29 36 c-39 48 -97 73 -169 73 -133 0 -219 -81
-253 -239 -26 -122 -11 -279 34 -367 45 -86 122 -134 219 -134 73 0 133 29
173 83 l30 41 0 -57 0 -57 95 0 95 0 0 490 0 490 -101 0 -101 0 4 -179z m-63
-226 c46 -40 66 -104 65 -215 0 -80 -4 -104 -26 -152 -28 -61 -64 -88 -116
-88 -77 0 -117 83 -117 240 0 119 19 186 62 220 37 29 94 26 132 -5z"/>
<path d="M6723 3748 c4 -24 9 -106 12 -183 9 -207 4 -195 81 -195 76 0 71 -14
79 190 3 80 8 164 12 188 l5 42 -97 0 -97 0 5 -42z"/>
<path d="M10550 3300 l0 -490 95 0 95 0 0 58 0 57 20 -31 c11 -17 39 -44 62
-60 37 -26 49 -29 124 -29 76 0 86 2 125 30 51 36 80 76 111 153 19 49 22 75
22 187 -1 144 -16 203 -73 283 -79 108 -272 112 -359 7 l-27 -34 3 180 4 179
-101 0 -101 0 0 -490z m393 90 c43 -34 62 -101 62 -220 0 -119 -19 -186 -62
-220 -52 -41 -135 -14 -167 54 -39 82 -43 232 -9 319 32 79 118 112 176 67z"/>
<path d="M830 3255 l0 -447 253 4 c251 3 252 3 302 30 97 51 135 114 135 225
0 107 -48 169 -157 203 -53 16 -55 17 -27 24 83 21 139 108 132 207 -6 80 -42
133 -116 167 -56 26 -62 27 -289 30 l-233 3 0 -446z m393 284 c42 -19 58 -78
37 -134 -14 -37 -65 -55 -155 -55 l-75 0 0 100 0 100 85 0 c46 0 95 -5 108
-11z m42 -351 c34 -15 55 -56 55 -108 0 -52 -21 -93 -55 -108 -15 -7 -71 -12
-130 -12 l-105 0 0 120 0 120 105 0 c59 0 115 -5 130 -12z"/>
<path d="M8930 3255 l0 -445 100 0 100 0 0 190 0 190 115 0 115 0 0 -190 0
-190 100 0 100 0 0 445 0 445 -100 0 -100 0 0 -175 0 -175 -115 0 -115 0 0
175 0 175 -100 0 -100 0 0 -445z"/>
<path d="M5085 3526 c-88 -28 -154 -83 -194 -162 -28 -57 -44 -165 -36 -244
11 -104 40 -167 104 -230 74 -74 135 -94 264 -88 108 5 164 26 230 87 40 37
76 95 66 106 -2 2 -43 7 -90 11 -82 6 -86 5 -91 -14 -15 -56 -140 -82 -205
-42 -37 22 -67 77 -77 138 l-6 42 245 0 245 0 0 23 c0 54 -23 157 -47 210 -32
70 -104 138 -170 161 -56 19 -181 20 -238 2z m179 -120 c38 -16 75 -69 83
-121 l6 -35 -147 0 -146 0 0 30 c0 50 45 116 90 133 28 10 81 7 114 -7z"/>
<path d="M6064 3521 c-47 -22 -88 -62 -106 -105 l-12 -30 -16 64 -16 65 -92 3
c-51 1 -92 1 -92 0 0 -2 7 -39 15 -83 10 -57 14 -160 15 -352 l0 -273 94 0 94
0 4 193 c4 173 6 197 27 243 46 104 108 138 245 132 l91 -3 3 76 c3 90 6 89
-128 89 -61 0 -96 -6 -126 -19z"/>
<path d="M7483 3521 c-107 -36 -153 -96 -153 -196 0 -124 54 -170 257 -221
161 -40 183 -51 183 -99 0 -56 -35 -75 -139 -75 -98 0 -146 20 -157 66 -6 25
-9 26 -58 20 -115 -15 -118 -16 -111 -45 11 -43 43 -87 85 -116 113 -78 376
-74 484 9 44 33 76 100 76 159 0 127 -74 185 -302 236 -105 24 -148 49 -148
86 0 42 43 65 121 65 81 0 114 -13 131 -52 l13 -29 80 6 c44 4 82 9 84 11 7 7
-9 51 -31 84 -50 74 -142 110 -277 110 -56 -1 -104 -7 -138 -19z"/>
<path d="M1640 3252 c0 -299 5 -333 63 -392 43 -44 84 -60 154 -60 92 1 164
44 206 125 16 30 16 30 17 -42 l0 -73 96 0 97 0 -7 31 c-3 17 -6 177 -6 355
l0 324 -94 0 -95 0 -3 -232 c-3 -225 -4 -234 -27 -275 -23 -41 -70 -73 -106
-73 -35 0 -73 30 -89 70 -13 33 -16 82 -16 275 l0 235 -95 0 -95 0 0 -268z"/>
<path d="M2502 3458 l3 -63 95 -5 95 -5 0 -220 0 -220 -130 -5 -130 -5 -3 -62
-3 -63 346 0 345 0 0 65 0 65 -115 0 -115 0 0 290 0 290 -195 0 -196 0 3 -62z"/>
<path d="M9740 3252 c0 -299 5 -333 63 -392 43 -44 84 -60 154 -60 92 1 164
44 206 125 16 30 16 30 17 -42 l0 -73 96 0 97 0 -7 31 c-3 17 -6 177 -6 355
l0 324 -94 0 -95 0 -3 -232 c-3 -225 -4 -234 -27 -275 -23 -41 -70 -73 -106
-73 -35 0 -73 30 -89 70 -13 33 -16 82 -16 275 l0 235 -95 0 -95 0 0 -268z"/>
</g>
</svg>
