<?xml version="1.0" standalone="no"?>
<!DOCTYPE svg PUBLIC "-//W3C//DTD SVG 20010904//EN"
 "http://www.w3.org/TR/2001/REC-SVG-20010904/DTD/svg10.dtd">
<svg version="1.0" xmlns="http://www.w3.org/2000/svg"
 width="600.000000pt" height="126.000000pt" viewBox="0 0 600.000000 126.000000"
 preserveAspectRatio="xMidYMid meet">
<metadata>
Created by potrace 1.15, written by Peter Selinger 2001-2017
</metadata>
<g transform="translate(0.000000,126.000000) scale(0.100000,-0.100000)"
fill="#000000" stroke="none">
<path d="M180 1250 c-12 -7 -3 -21 47 -68 67 -65 83 -89 83 -124 0 -29 -48
-78 -76 -78 -11 0 -50 30 -90 70 -95 96 -114 93 -114 -19 0 -70 15 -118 47
-150 12 -13 23 -28 23 -32 0 -11 84 -49 109 -49 11 0 23 -4 26 -10 8 -14 52
-13 61 1 4 7 110 -92 264 -246 l257 -257 6 -62 c3 -33 12 -76 20 -94 21 -49
80 -107 125 -120 65 -20 192 -13 192 9 0 5 -31 42 -70 81 -41 42 -70 80 -70
92 0 12 9 36 21 55 19 31 23 33 59 28 32 -4 50 -17 101 -71 34 -36 68 -66 75
-66 18 0 28 60 21 129 -6 67 -51 142 -100 168 -18 8 -35 20 -38 26 -4 5 -40
12 -80 15 l-73 5 -248 248 -248 248 0 44 c0 96 -50 182 -127 221 -36 18 -178
22 -203 6z"/>
<path d="M770 1237 c-16 -8 -25 -21 -25 -37 0 -20 7 -26 40 -35 61 -16 97 -39
133 -87 12 -15 0 -30 -97 -124 -61 -58 -111 -114 -111 -123 0 -21 80 -101 102
-101 8 0 63 48 122 107 97 97 108 105 120 88 7 -10 11 -27 9 -39 -2 -14 10
-37 37 -68 60 -70 78 -67 173 31 42 44 77 87 77 96 0 25 -87 105 -113 105 -15
0 -54 31 -113 88 -64 62 -103 91 -131 100 -53 16 -191 15 -223 -1z"/>
<path d="M1557 903 c-53 -4 -58 -6 -55 -26 2 -16 11 -23 31 -25 l27 -3 -2
-212 -3 -212 -27 -3 c-22 -3 -28 -9 -28 -26 0 -31 20 -36 155 -36 124 0 168
10 208 45 34 30 47 64 47 120 0 60 -15 89 -61 115 l-40 22 25 19 c29 23 56 73
56 103 -1 12 -13 39 -28 61 -41 59 -100 70 -305 58z m211 -81 c18 -23 15 -86
-5 -111 -12 -13 -35 -23 -70 -27 l-53 -7 0 49 c0 77 11 123 29 127 25 5 85
-13 99 -31z m-36 -202 c29 -8 42 -21 63 -57 17 -32 22 -50 15 -57 -5 -5 -10
-17 -10 -26 0 -29 -25 -51 -68 -61 -23 -5 -54 -6 -67 -3 -25 6 -25 8 -25 110
l0 104 28 0 c15 0 44 -5 64 -10z"/>
<path d="M2558 903 c-22 -3 -28 -10 -28 -29 0 -19 5 -24 25 -24 l25 0 0 -214
0 -214 -27 -3 c-16 -2 -40 -3 -55 -1 l-28 3 0 166 0 166 -37 -7 c-21 -3 -53
-6 -70 -6 -28 0 -33 -4 -33 -24 0 -19 7 -26 30 -31 l30 -7 0 -128 0 -128 -30
-4 c-16 -3 -43 -3 -60 0 l-30 4 0 165 0 165 -62 -7 c-74 -9 -78 -10 -78 -35 0
-12 10 -21 30 -25 l30 -7 0 -103 c0 -115 -11 -141 -65 -150 -57 -10 -60 -1
-61 167 l-1 153 -26 -1 c-104 -2 -107 -3 -107 -29 0 -18 7 -26 25 -31 25 -6
25 -6 25 -127 0 -148 11 -184 58 -193 58 -11 123 1 143 27 l19 24 0 -26 0 -27
261 0 260 -1 -3 27 c-2 21 -9 28 -31 30 l-29 3 4 245 3 244 -40 -1 c-22 -1
-52 -4 -67 -6z"/>
<path d="M2962 903 c-27 -4 -33 -8 -30 -26 2 -16 11 -23 31 -25 26 -3 27 -6
27 -56 l0 -53 -49 5 c-63 6 -92 -2 -129 -33 -48 -41 -74 -105 -74 -183 0 -38
5 -68 11 -70 6 -2 11 -11 11 -19 0 -9 11 -31 25 -49 32 -42 89 -53 154 -30 31
12 47 13 57 6 7 -6 36 -10 66 -8 50 3 53 5 56 31 3 23 0 27 -22 27 l-26 0 0
245 0 245 -37 -2 c-21 0 -53 -3 -71 -5z m14 -234 c22 -18 20 -190 -4 -219 -25
-31 -91 -38 -115 -12 -41 45 -30 205 17 238 23 17 78 13 102 -7z"/>
<path d="M5308 903 c-22 -3 -28 -10 -28 -29 0 -19 5 -24 25 -24 l25 0 0 -207
c0 -254 4 -283 36 -283 13 0 24 5 24 12 0 9 3 9 12 0 24 -24 198 -9 198 17 0
4 11 19 26 34 56 61 54 216 -5 285 -35 41 -105 53 -164 29 l-37 -16 0 95 0 94
-42 -1 c-24 -1 -55 -4 -70 -6z m240 -253 c9 -16 20 -30 25 -30 12 0 8 -119 -5
-143 -26 -45 -41 -57 -75 -57 -67 0 -73 9 -73 120 0 95 1 99 26 119 40 31 81
28 102 -9z"/>
<path d="M4370 875 c0 -18 5 -25 20 -25 19 0 20 -7 20 -214 l0 -214 -30 -7
c-20 -4 -30 -13 -30 -24 0 -16 13 -19 96 -25 61 -5 100 -4 107 3 14 14 1 42
-23 48 -18 5 -20 14 -20 104 l0 99 115 0 115 0 0 -99 0 -99 -30 -7 c-20 -4
-30 -13 -30 -24 0 -15 12 -19 77 -25 121 -10 123 -9 123 19 0 18 -7 26 -25 31
l-25 6 0 183 c0 211 4 245 31 245 14 0 19 7 19 25 l0 25 -101 0 c-98 0 -100 0
-97 -22 2 -17 11 -24 31 -26 l27 -3 0 -90 0 -89 -115 0 -115 0 0 90 c0 88 0
90 24 90 22 0 36 16 36 41 0 5 -45 9 -100 9 l-100 0 0 -25z"/>
<path d="M3245 741 c-28 -12 -62 -51 -85 -97 -22 -41 -28 -158 -10 -169 6 -3
10 -14 10 -23 0 -10 13 -33 29 -52 28 -33 32 -35 108 -38 77 -4 81 -3 112 26
50 45 14 74 -45 35 -20 -13 -33 -14 -62 -7 -40 10 -55 32 -67 97 l-7 37 105 0
c59 0 109 4 112 10 3 5 1 35 -4 65 -15 80 -52 117 -123 122 -29 1 -62 -1 -73
-6z"/>
<path d="M3513 743 c-37 -4 -43 -7 -43 -27 0 -17 7 -26 25 -30 l25 -6 0 -130
0 -130 -25 0 c-21 0 -25 -5 -25 -30 l0 -30 106 0 105 0 -3 28 c-2 22 -8 28
-35 30 l-33 3 0 100 0 99 33 20 c22 14 42 18 63 14 28 -5 32 -3 37 24 11 53
-1 72 -42 72 -27 0 -44 -7 -62 -26 l-24 -26 -5 24 c-6 25 -21 28 -97 21z"/>
<path d="M3963 740 c-12 -5 -29 -22 -37 -39 -30 -58 -15 -120 36 -151 84 -51
118 -79 118 -99 0 -27 -21 -41 -62 -41 -34 0 -39 4 -52 35 -10 24 -22 35 -35
35 -19 0 -21 -6 -21 -55 0 -54 0 -54 35 -61 20 -3 65 -4 101 -2 51 3 70 9 80
24 8 10 21 27 29 37 15 18 21 87 7 87 -4 0 -12 10 -17 22 -6 13 -23 29 -40 37
-16 8 -36 20 -43 28 -7 7 -19 13 -26 13 -17 0 -46 33 -46 52 0 52 81 45 90 -7
4 -24 11 -31 33 -33 27 -3 27 -2 27 51 0 53 -1 56 -31 66 -38 13 -115 13 -146
1z"/>
<path d="M4935 741 c-52 -8 -61 -41 -15 -58 l30 -11 0 -134 c0 -128 1 -136 23
-156 33 -31 137 -32 166 -1 l19 21 7 -22 c6 -19 13 -21 63 -18 54 3 57 5 60
31 3 22 -1 27 -17 27 -20 0 -21 5 -21 154 0 180 0 180 -84 170 -50 -6 -56 -9
-56 -30 0 -14 8 -25 21 -29 20 -7 21 -13 17 -121 -3 -126 -14 -146 -73 -141
l-30 2 -5 160 -5 160 -30 1 c-16 1 -48 -1 -70 -5z"/>
<path d="M198 441 c-243 -244 -238 -228 -117 -349 119 -119 100 -126 348 122
111 113 201 209 200 215 -8 22 -203 211 -218 211 -9 0 -105 -90 -213 -199z"/>
</g>
</svg>
